<svg width="21" height="14" viewBox="0 0 21 14" fill="none" xmlns="http://www.w3.org/2000/svg">
<path fillRule="evenodd" clipRule="evenodd" d="M17.8713 9.07297L12.3063 9.0723C12.1268 9.0723 11.9813 9.15272 11.9184 9.27088C11.9158 9.27636 11.9135 9.2823 11.9111 9.28778L11.1899 10.8122L11.1603 10.8759C11.0927 10.9841 10.9545 11.0568 10.7841 11.0568L1.63408 11.0548L2.59897 9.32006C2.60191 9.31241 2.60456 9.30496 2.60881 9.29844C2.671 9.17971 2.81658 9.09892 2.9968 9.09892L9.23932 9.0656C9.25314 9.06721 9.26753 9.06721 9.28154 9.06721C9.29583 9.06721 9.30994 9.06721 9.32347 9.06655C9.48296 9.05456 9.60904 8.97896 9.66715 8.87127C9.66829 8.87014 9.66914 8.86929 9.66895 8.86882L9.68192 8.83993C9.68287 8.83861 9.68353 8.83644 9.68372 8.83493L10.3943 7.33218C10.3978 7.32491 10.4012 7.31698 10.4052 7.30981C10.4676 7.19136 10.6125 7.11123 10.7923 7.11123L16.4537 7.11189C16.6393 7.11189 16.8088 7.19032 16.9205 7.33765C16.9222 7.34001 16.9239 7.34199 16.9252 7.34398L17.8713 9.07297ZM20.5437 14L18.5199 10.257L18.4942 10.2233C18.4942 10.2228 18.4939 10.222 18.4937 10.2215C18.3958 10.1039 18.2278 10.0247 18.0488 10.0247L13.0343 10.0238C12.8578 10.0238 12.7149 10.1009 12.6501 10.2165L12.6316 10.2559L11.9078 11.7885C11.9044 11.796 11.9007 11.8023 11.8981 11.8094C11.8348 11.9281 11.6899 12.0076 11.5101 12.0076L1.37047 12.0066C1.22679 12.0066 1.08273 12.0517 0.980696 12.2282L0 13.9964L20.5437 14ZM14.3613 2.68083L8.30558 2.68036C8.15129 2.68036 8.02645 2.76021 7.97268 2.87894C7.96928 2.8863 7.96596 2.89366 7.96397 2.90169L7.12147 4.97206C7.11949 4.97895 7.11627 4.98546 7.11343 4.99235C7.05919 5.11052 6.93434 5.19093 6.77959 5.19093L4.92515 5.19046L7.62181 0.232369C7.6751 0.082773 7.81187 0 7.96899 0L12.6432 0.000471652C12.7968 0.000471652 12.9409 0.0802245 13.0252 0.197353L13.0266 0.199335C13.0297 0.204243 13.0471 0.229632 13.0481 0.233219L14.3613 2.68083ZM16.2862 6.16316L15.0218 3.849C15.0171 3.84155 15.0128 3.83475 15.0076 3.82824C14.92 3.70979 14.769 3.62919 14.6076 3.62919L8.92044 3.629C8.75821 3.629 8.62863 3.70913 8.57259 3.82786C8.56881 3.83484 8.56568 3.84164 8.56303 3.84947L7.70046 5.88558C7.69261 5.91729 7.67983 5.94759 7.6626 5.97496C7.60297 6.07085 7.49043 6.1356 7.35479 6.14202C7.34722 6.14202 7.3404 6.14202 7.33255 6.14202C7.32564 6.14202 7.31854 6.14202 7.31078 6.14202L4.58923 6.14164C4.44498 6.14117 4.31247 6.21762 4.23485 6.35683L3.29315 8.05722L8.74514 8.11527C8.86024 8.10149 8.95451 8.04382 9.01074 7.96237L9.05873 7.84892L9.67492 6.3944C9.67577 6.3927 9.67605 6.39175 9.67671 6.39043C9.67965 6.38024 9.68447 6.37024 9.68854 6.36108C9.68921 6.36023 9.68949 6.35891 9.69072 6.35825C9.7478 6.24131 9.87653 6.16297 10.0361 6.16297L16.2862 6.16316Z" fill="#00796B"/>
</svg>
